<?xml version="1.0" encoding="UTF-8" standalone="no"?>
<svg width="600" height="400" viewBox="0 0 600 400" fill="none" xmlns="http://www.w3.org/2000/svg">
  <!-- Background gradient -->
  <rect width="600" height="400" rx="20" fill="url(#paint0_linear)" />
  
  <!-- Terrarium glass container -->
  <ellipse cx="300" cy="320" rx="140" ry="30" fill="#7BBEAD" fill-opacity="0.3" />
  <path d="M160 220C160 171.4 222.8 132 300 132C377.2 132 440 171.4 440 220V320C440 368.6 377.2 408 300 408C222.8 408 160 368.6 160 320V220Z" fill="url(#paint1_linear)" stroke="#7BBEAD" stroke-width="2" />
  
  <!-- Trees and plants inside terrarium -->
  <path d="M290 360C290 360 270 310 260 290C250 270 240 250 245 240C250 230 260 225 270 235C280 245 285 260 290 275C290 275 300 240 310 230C320 220 335 215 345 225C355 235 350 250 340 270C330 290 310 350 310 350" stroke="#5B9D8A" stroke-width="4" stroke-linecap="round" />
  <path d="M225 330C225 330 215 290 210 280C205 270 200 260 205 255C210 250 220 252 225 260C230 268 230 280 230 290" stroke="#5B9D8A" stroke-width="3" stroke-linecap="round" />
  <path d="M375 330C375 330 385 290 390 280C395 270 400 260 395 255C390 250 380 252 375 260C370 268 370 280 370 290" stroke="#5B9D8A" stroke-width="3" stroke-linecap="round" />
  
  <!-- Small plants and decorative elements -->
  <circle cx="340" cy="330" r="8" fill="#8ED1BD" />
  <circle cx="355" cy="345" r="6" fill="#8ED1BD" />
  <circle cx="260" cy="330" r="8" fill="#8ED1BD" />
  <circle cx="245" cy="345" r="6" fill="#8ED1BD" />
  
  <!-- Stylized silhouette of a woman/counselor with a nurturing posture -->
  <path d="M300 130C320 130 335 115 340 100C345 85 350 60 330 50C310 40 290 40 270 50C250 60 255 85 260 100C265 115 280 130 300 130Z" fill="#5B9D8A" />
  
  <!-- Arms in a welcoming/nurturing gesture -->
  <path d="M270 130C270 130 250 140 240 160C230 180 235 200 245 210" stroke="#5B9D8A" stroke-width="4" stroke-linecap="round" />
  <path d="M330 130C330 130 350 140 360 160C370 180 365 200 355 210" stroke="#5B9D8A" stroke-width="4" stroke-linecap="round" />
  
  <!-- Decorative elements around the silhouette -->
  <circle cx="220" cy="120" r="15" fill="#8ED1BD" fill-opacity="0.5" />
  <circle cx="380" cy="120" r="15" fill="#8ED1BD" fill-opacity="0.5" />
  <circle cx="300" cy="60" r="20" fill="#8ED1BD" fill-opacity="0.3" />
  
  <!-- Smaller decorative circles to represent nature/healing elements -->
  <circle cx="350" cy="80" r="8" fill="#F3C98B" fill-opacity="0.7" />
  <circle cx="250" cy="80" r="8" fill="#F3C98B" fill-opacity="0.7" />
  <circle cx="400" cy="180" r="10" fill="#F3C98B" fill-opacity="0.5" />
  <circle cx="200" cy="180" r="10" fill="#F3C98B" fill-opacity="0.5" />
  
  <!-- Gentle waves representing growth and healing -->
  <path d="M150 260C170 250 190 260 210 270C230 280 250 290 270 290C290 290 310 290 330 290C350 290 370 280 390 270C410 260 430 250 450 260" stroke="#8ED1BD" stroke-opacity="0.6" stroke-width="2" />
  <path d="M150 280C170 270 190 280 210 290C230 300 250 310 270 310C290 310 310 310 330 310C350 310 370 300 390 290C410 280 430 270 450 280" stroke="#8ED1BD" stroke-opacity="0.4" stroke-width="2" />
  
  <!-- Gradients definitions -->
  <defs>
    <linearGradient id="paint0_linear" x1="300" y1="0" x2="300" y2="400" gradientUnits="userSpaceOnUse">
      <stop stop-color="#E6F7F4" />
      <stop offset="1" stop-color="#FFFFFF" />
    </linearGradient>
    <linearGradient id="paint1_linear" x1="300" y1="132" x2="300" y2="408" gradientUnits="userSpaceOnUse">
      <stop stop-color="#E6F7F4" stop-opacity="0.8" />
      <stop offset="1" stop-color="#FFFFFF" stop-opacity="0.4" />
    </linearGradient>
  </defs>
</svg>