<?xml version="1.0" encoding="UTF-8" standalone="no"?>
<svg width="600" height="400" viewBox="0 0 600 400" fill="none" xmlns="http://www.w3.org/2000/svg">
  <!-- Background gradients with website's color scheme -->
  <defs>
    <linearGradient id="bgGradient" x1="0" y1="0" x2="600" y2="400" gradientUnits="userSpaceOnUse">
      <stop offset="0%" stop-color="#F0F7F7" /> <!-- Light background -->
      <stop offset="100%" stop-color="#E6F7F4" /> <!-- Light mint background -->
    </linearGradient>
    <linearGradient id="leafGradient1" x1="0" y1="0" x2="100" y2="100" gradientUnits="userSpaceOnUse">
      <stop offset="0%" stop-color="#20B2AA" stop-opacity="0.2" /> <!-- Primary teal color with transparency -->
      <stop offset="100%" stop-color="#20B2AA" stop-opacity="0.6" /> <!-- Primary teal color with more opacity -->
    </linearGradient>
    <linearGradient id="leafGradient2" x1="0" y1="0" x2="100" y2="100" gradientUnits="userSpaceOnUse">
      <stop offset="0%" stop-color="#A0937D" stop-opacity="0.2" /> <!-- Warm brown with transparency -->
      <stop offset="100%" stop-color="#8A7967" stop-opacity="0.6" /> <!-- Darker warm brown with more opacity -->
    </linearGradient>
    <linearGradient id="sunGradient" x1="300" y1="60" x2="300" y2="140" gradientUnits="userSpaceOnUse">
      <stop offset="0%" stop-color="#FFEDD5" /> <!-- Warm light color -->
      <stop offset="100%" stop-color="#FED7AA" /> <!-- Warm orange glow -->
    </linearGradient>
    <linearGradient id="handLight" x1="250" y1="180" x2="250" y2="260" gradientUnits="userSpaceOnUse">
      <stop offset="0%" stop-color="#F8E3DD" /> <!-- Light skin tone -->
      <stop offset="100%" stop-color="#F5D0C5" /> <!-- Slightly darker skin tone -->
    </linearGradient>
    <linearGradient id="handDark" x1="350" y1="180" x2="350" y2="260" gradientUnits="userSpaceOnUse">
      <stop offset="0%" stop-color="#8A6852" /> <!-- Dark skin tone -->
      <stop offset="100%" stop-color="#6D5243" /> <!-- Slightly darker skin tone -->
    </linearGradient>
    <filter id="dropShadow" x="-20%" y="-20%" width="140%" height="140%">
      <feGaussianBlur in="SourceAlpha" stdDeviation="4" />
      <feOffset dx="2" dy="2" result="offsetblur" />
      <feComponentTransfer>
        <feFuncA type="linear" slope="0.2" />
      </feComponentTransfer>
      <feMerge>
        <feMergeNode />
        <feMergeNode in="SourceGraphic" />
      </feMerge>
    </filter>
  </defs>
  
  <!-- Background -->
  <rect width="600" height="400" rx="20" fill="url(#bgGradient)" />
  
  <!-- Abstract sunlight effect in the background -->
  <circle cx="300" cy="100" r="80" fill="url(#sunGradient)" opacity="0.5" />
  <circle cx="300" cy="100" r="60" fill="#FFEDD5" opacity="0.3" />
  <circle cx="300" cy="100" r="40" fill="#FFEDD5" opacity="0.2" />
  
  <!-- Forest background -->
  <rect x="0" y="160" width="600" height="240" fill="#DBEEE5" opacity="0.3" /> <!-- Ground -->
  
  <!-- Grass in foreground -->
  <path d="M0 340 C50 330 100 335 150 325 C200 320 250 330 300 325 C350 330 400 320 450 330 C500 335 550 330 600 340 L600 400 L0 400 Z" fill="#8ED1BD" opacity="0.2" />
  <path d="M0 360 C50 350 100 355 150 345 C200 340 250 350 300 345 C350 350 400 340 450 350 C500 355 550 350 600 360 L600 400 L0 400 Z" fill="#8ED1BD" opacity="0.3" />
  <path d="M0 380 C50 370 100 375 150 365 C200 360 250 370 300 365 C350 370 400 360 450 370 C500 375 550 370 600 380 L600 400 L0 400 Z" fill="#8ED1BD" opacity="0.4" />
  
  <!-- Left side leaves -->
  <path d="M50 50 C80 30 110 40 130 70 C150 100 140 130 110 150 C80 170 50 160 30 130 C10 100 20 70 50 50Z" fill="url(#leafGradient1)" opacity="0.6" transform="rotate(15, 80, 100)" />
  <path d="M100 20 C130 0 160 10 180 40 C200 70 190 100 160 120 C130 140 100 130 80 100 C60 70 70 40 100 20Z" fill="url(#leafGradient1)" opacity="0.5" transform="rotate(30, 130, 70)" />
  <path d="M150 10 C180 -10 210 0 230 30 C250 60 240 90 210 110 C180 130 150 120 130 90 C110 60 120 30 150 10Z" fill="url(#leafGradient1)" opacity="0.4" transform="rotate(45, 180, 60)" />
  
  <!-- Right side leaves -->
  <path d="M450 50 C480 30 510 40 530 70 C550 100 540 130 510 150 C480 170 450 160 430 130 C410 100 420 70 450 50Z" fill="url(#leafGradient2)" opacity="0.6" transform="rotate(-15, 480, 100)" />
  <path d="M500 20 C530 0 560 10 580 40 C600 70 590 100 560 120 C530 140 500 130 480 100 C460 70 470 40 500 20Z" fill="url(#leafGradient2)" opacity="0.5" transform="rotate(-30, 530, 70)" />
  <path d="M550 10 C580 -10 610 0 630 30 C650 60 640 90 610 110 C580 130 550 120 530 90 C510 60 520 30 550 10Z" fill="url(#leafGradient2)" opacity="0.4" transform="rotate(-45, 580, 60)" />
  
  <!-- Thin branch lines -->
  <path d="M100 180 C120 170 140 160 160 150 C180 140 200 130 220 120" stroke="#5B9D8A" stroke-width="2" stroke-opacity="0.5" fill="none" />
  <path d="M500 180 C480 170 460 160 440 150 C420 140 400 130 380 120" stroke="#8A7967" stroke-width="2" stroke-opacity="0.5" fill="none" />
  
  <!-- Hands reaching out -->
  <!-- Light hand (left) -->
  <path d="M200 250 C220 230 240 220 250 210 C260 200 255 190 245 195 C235 200 225 210 220 220 C215 215 210 210 205 215 C200 220 210 230 215 235 C210 230 200 225 195 230 C190 235 195 245 205 250 L200 250Z" fill="url(#handLight)" filter="url(#dropShadow)" />
  <path d="M200 250 C230 270 260 280 290 260" stroke="url(#handLight)" stroke-width="30" stroke-linecap="round" />
  
  <!-- Dark hand (right) -->
  <path d="M400 250 C380 230 360 220 350 210 C340 200 345 190 355 195 C365 200 375 210 380 220 C385 215 390 210 395 215 C400 220 390 230 385 235 C390 230 400 225 405 230 C410 235 405 245 395 250 L400 250Z" fill="url(#handDark)" filter="url(#dropShadow)" />
  <path d="M400 250 C370 270 340 280 310 260" stroke="url(#handDark)" stroke-width="30" stroke-linecap="round" />
  
  <!-- Hands touching highlight -->
  <circle cx="300" cy="260" r="10" fill="#FFFFFF" opacity="0.7" />
  
  <!-- Subtle light rays -->
  <line x1="300" y1="100" x2="300" y2="170" stroke="#FED7AA" stroke-opacity="0.3" stroke-width="1" />
  <line x1="300" y1="100" x2="280" y2="180" stroke="#FED7AA" stroke-opacity="0.3" stroke-width="1" />
  <line x1="300" y1="100" x2="320" y2="180" stroke="#FED7AA" stroke-opacity="0.3" stroke-width="1" />
  <line x1="300" y1="100" x2="260" y2="160" stroke="#FED7AA" stroke-opacity="0.3" stroke-width="1" />
  <line x1="300" y1="100" x2="340" y2="160" stroke="#FED7AA" stroke-opacity="0.3" stroke-width="1" />
  
  <!-- Small details in foreground -->
  <circle cx="250" cy="300" r="2" fill="#5B9D8A" opacity="0.6" />
  <circle cx="260" cy="310" r="1.5" fill="#5B9D8A" opacity="0.5" />
  <circle cx="270" cy="305" r="2" fill="#5B9D8A" opacity="0.6" />
  
  <circle cx="350" cy="300" r="2" fill="#8A7967" opacity="0.6" />
  <circle cx="340" cy="310" r="1.5" fill="#8A7967" opacity="0.5" />
  <circle cx="330" cy="305" r="2" fill="#8A7967" opacity="0.6" />
</svg>