<?xml version="1.0" encoding="UTF-8" standalone="no"?>
<svg width="600" height="400" viewBox="0 0 600 400" fill="none" xmlns="http://www.w3.org/2000/svg">
  <!-- Background gradients with website's color scheme -->
  <defs>
    <linearGradient id="bgGradient" x1="300" y1="0" x2="300" y2="400" gradientUnits="userSpaceOnUse">
      <stop offset="0%" stop-color="#F0F7F7" /> <!-- Light background -->
      <stop offset="80%" stop-color="#DBEEE5" /> <!-- Light mint background -->
      <stop offset="100%" stop-color="#D6E9E9" /> <!-- Subtle teal hint -->
    </linearGradient>
    <linearGradient id="handLight" x1="250" y1="180" x2="250" y2="260" gradientUnits="userSpaceOnUse">
      <stop offset="0%" stop-color="#F8E3DD" /> <!-- Light skin tone -->
      <stop offset="100%" stop-color="#F5D0C5" /> <!-- Slightly darker skin tone -->
    </linearGradient>
    <linearGradient id="handDark" x1="350" y1="180" x2="350" y2="260" gradientUnits="userSpaceOnUse">
      <stop offset="0%" stop-color="#8A6852" /> <!-- Dark skin tone -->
      <stop offset="100%" stop-color="#6D5243" /> <!-- Slightly darker skin tone -->
    </linearGradient>
    <filter id="glow" x="-20%" y="-20%" width="140%" height="140%">
      <feGaussianBlur in="SourceGraphic" stdDeviation="5" />
      <feComponentTransfer>
        <feFuncA type="linear" slope="0.3" />
      </feComponentTransfer>
      <feMerge>
        <feMergeNode />
        <feMergeNode in="SourceGraphic" />
      </feMerge>
    </filter>
    <filter id="softShadow" x="-10%" y="-10%" width="120%" height="120%">
      <feGaussianBlur in="SourceAlpha" stdDeviation="2" />
      <feOffset dx="1" dy="1" result="offsetblur" />
      <feComponentTransfer>
        <feFuncA type="linear" slope="0.2" />
      </feComponentTransfer>
      <feMerge>
        <feMergeNode />
        <feMergeNode in="SourceGraphic" />
      </feMerge>
    </filter>
  </defs>
  
  <!-- Background with modern gradient approach -->
  <rect width="600" height="400" rx="20" fill="url(#bgGradient)" />
  
  <!-- Abstract nature elements - minimalistic impressionist style -->
  <!-- Left side branch -->
  <path d="M0 100 C50 80 100 60 150 80 C200 100 200 120 250 100" stroke="#20B2AA" stroke-width="0.8" stroke-opacity="0.2" fill="none" />
  <path d="M10 130 C60 110 110 90 160 110 C210 130 210 150 260 130" stroke="#20B2AA" stroke-width="0.8" stroke-opacity="0.2" fill="none" />
  
  <!-- Right side branch -->
  <path d="M600 100 C550 80 500 60 450 80 C400 100 400 120 350 100" stroke="#20B2AA" stroke-width="0.8" stroke-opacity="0.2" fill="none" />
  <path d="M590 130 C540 110 490 90 440 110 C390 130 390 150 340 130" stroke="#20B2AA" stroke-width="0.8" stroke-opacity="0.2" fill="none" />
  
  <!-- Abstract leaf formations with primary, secondary, and accent colors -->
  <!-- Left side leaf clusters -->
  <g opacity="0.3">
    <circle cx="50" cy="80" r="20" fill="#20B2AA" opacity="0.3" />
    <circle cx="60" cy="70" r="15" fill="#20B2AA" opacity="0.2" />
    <circle cx="70" cy="60" r="10" fill="#20B2AA" opacity="0.1" />
    
    <circle cx="100" cy="70" r="25" fill="#20B2AA" opacity="0.2" />
    <circle cx="110" cy="60" r="15" fill="#20B2AA" opacity="0.15" />
    <circle cx="120" cy="50" r="10" fill="#20B2AA" opacity="0.1" />
    
    <circle cx="150" cy="50" r="20" fill="#20B2AA" opacity="0.25" />
    <circle cx="160" cy="40" r="15" fill="#20B2AA" opacity="0.2" />
    <circle cx="170" cy="30" r="10" fill="#20B2AA" opacity="0.15" />
  </g>
  
  <!-- Right side leaf clusters -->
  <g opacity="0.3">
    <circle cx="550" cy="80" r="20" fill="#F87171" opacity="0.25" />
    <circle cx="540" cy="70" r="15" fill="#F87171" opacity="0.2" />
    <circle cx="530" cy="60" r="10" fill="#F87171" opacity="0.15" />
    
    <circle cx="500" cy="70" r="25" fill="#F87171" opacity="0.2" />
    <circle cx="490" cy="60" r="15" fill="#F87171" opacity="0.15" />
    <circle cx="480" cy="50" r="10" fill="#F87171" opacity="0.1" />
    
    <circle cx="450" cy="50" r="20" fill="#F87171" opacity="0.15" />
    <circle cx="440" cy="40" r="15" fill="#F87171" opacity="0.1" />
    <circle cx="430" cy="30" r="10" fill="#F87171" opacity="0.05" />
  </g>
  
  <!-- Minimalist sun/light source -->
  <circle cx="300" cy="80" r="40" fill="#FFFFFF" opacity="0.15" />
  <circle cx="300" cy="80" r="30" fill="#FFEDD5" opacity="0.1" />
  <circle cx="300" cy="80" r="20" fill="#FED7AA" opacity="0.05" />
  
  <!-- Subtle light rays -->
  <line x1="300" y1="80" x2="300" y2="170" stroke="#FFEDD5" stroke-opacity="0.15" stroke-width="0.8" />
  <line x1="300" y1="80" x2="280" y2="160" stroke="#FFEDD5" stroke-opacity="0.15" stroke-width="0.8" />
  <line x1="300" y1="80" x2="320" y2="160" stroke="#FFEDD5" stroke-opacity="0.15" stroke-width="0.8" />
  <line x1="300" y1="80" x2="260" y2="140" stroke="#FFEDD5" stroke-opacity="0.15" stroke-width="0.8" />
  <line x1="300" y1="80" x2="340" y2="140" stroke="#FFEDD5" stroke-opacity="0.15" stroke-width="0.8" />
  
  <!-- Ground planes with modern layered approach -->
  <rect x="0" y="310" width="600" height="90" fill="#20B2AA" opacity="0.03" />
  <rect x="0" y="330" width="600" height="70" fill="#20B2AA" opacity="0.04" />
  <rect x="0" y="350" width="600" height="50" fill="#20B2AA" opacity="0.05" />
  <rect x="0" y="370" width="600" height="30" fill="#20B2AA" opacity="0.07" />
  
  <!-- Stylized grass in foreground - minimal style -->
  <g transform="translate(150, 350)" opacity="0.3">
    <path d="M0 0 C5 -10 10 -15 15 0" stroke="#20B2AA" stroke-width="0.8" fill="none" />
    <path d="M20 0 C25 -15 30 -20 35 0" stroke="#20B2AA" stroke-width="0.8" fill="none" />
    <path d="M40 0 C45 -10 50 -15 55 0" stroke="#20B2AA" stroke-width="0.8" fill="none" />
    <path d="M60 0 C65 -5 70 -8 75 0" stroke="#20B2AA" stroke-width="0.8" fill="none" />
  </g>
  
  <g transform="translate(380, 350)" opacity="0.3">
    <path d="M0 0 C5 -10 10 -15 15 0" stroke="#20B2AA" stroke-width="0.8" fill="none" />
    <path d="M20 0 C25 -15 30 -20 35 0" stroke="#20B2AA" stroke-width="0.8" fill="none" />
    <path d="M40 0 C45 -10 50 -15 55 0" stroke="#20B2AA" stroke-width="0.8" fill="none" />
    <path d="M60 0 C65 -5 70 -8 75 0" stroke="#20B2AA" stroke-width="0.8" fill="none" />
  </g>
  
  <!-- Central glow behind hands -->
  <circle cx="300" cy="250" r="70" fill="#FFFFFF" opacity="0.2" filter="url(#glow)" />
  
  <!-- Hands reaching out with modern artistic style -->
  <!-- Light hand (left) -->
  <g filter="url(#softShadow)">
    <!-- Palm and wrist -->
    <path d="M200 250 C230 270 260 280 290 260" stroke="url(#handLight)" stroke-width="30" stroke-linecap="round" />
    
    <!-- Fingers with more elegant curves -->
    <path d="M200 250 C210 235 225 230 240 220" stroke="url(#handLight)" stroke-width="10" stroke-linecap="round" fill="none" />
    <path d="M240 220 C245 215 250 210 245 195" stroke="url(#handLight)" stroke-width="6" stroke-linecap="round" fill="none" />
    
    <path d="M220 240 C225 230 230 225 235 220" stroke="url(#handLight)" stroke-width="8" stroke-linecap="round" fill="none" />
    <path d="M235 220 C240 215 242 210 238 200" stroke="url(#handLight)" stroke-width="5" stroke-linecap="round" fill="none" />
    
    <path d="M230 245 C235 235 238 230 240 225" stroke="url(#handLight)" stroke-width="7" stroke-linecap="round" fill="none" />
    <path d="M240 225 C242 220 244 215 241 205" stroke="url(#handLight)" stroke-width="4" stroke-linecap="round" fill="none" />
    
    <path d="M240 250 C242 240 244 235 246 230" stroke="url(#handLight)" stroke-width="6" stroke-linecap="round" fill="none" />
    <path d="M246 230 C248 225 249 220 246 210" stroke="url(#handLight)" stroke-width="3" stroke-linecap="round" fill="none" />
  </g>
  
  <!-- Dark hand (right) -->
  <g filter="url(#softShadow)">
    <!-- Palm and wrist -->
    <path d="M400 250 C370 270 340 280 310 260" stroke="url(#handDark)" stroke-width="30" stroke-linecap="round" />
    
    <!-- Fingers with more elegant curves -->
    <path d="M400 250 C390 235 375 230 360 220" stroke="url(#handDark)" stroke-width="10" stroke-linecap="round" fill="none" />
    <path d="M360 220 C355 215 350 210 355 195" stroke="url(#handDark)" stroke-width="6" stroke-linecap="round" fill="none" />
    
    <path d="M380 240 C375 230 370 225 365 220" stroke="url(#handDark)" stroke-width="8" stroke-linecap="round" fill="none" />
    <path d="M365 220 C360 215 358 210 362 200" stroke="url(#handDark)" stroke-width="5" stroke-linecap="round" fill="none" />
    
    <path d="M370 245 C365 235 362 230 360 225" stroke="url(#handDark)" stroke-width="7" stroke-linecap="round" fill="none" />
    <path d="M360 225 C358 220 356 215 359 205" stroke="url(#handDark)" stroke-width="4" stroke-linecap="round" fill="none" />
    
    <path d="M360 250 C358 240 356 235 354 230" stroke="url(#handDark)" stroke-width="6" stroke-linecap="round" fill="none" />
    <path d="M354 230 C352 225 351 220 354 210" stroke="url(#handDark)" stroke-width="3" stroke-linecap="round" fill="none" />
  </g>
  
  <!-- Connection point between hands with glow -->
  <circle cx="300" cy="260" r="12" fill="#FFFFFF" opacity="0.8" />
  <circle cx="300" cy="260" r="8" fill="#FFFFFF" opacity="0.9" />
  <circle cx="300" cy="260" r="4" fill="#FFFFFF" />
  
  <!-- Energy lines connecting hands -->
  <path d="M280 240 C285 245 290 250 295 255 C300 260 305 265 310 270" stroke="#20B2AA" stroke-opacity="0.4" stroke-width="0.5" />
  <path d="M270 245 C280 250 290 255 300 260 C310 265 320 270 330 275" stroke="#20B2AA" stroke-opacity="0.3" stroke-width="0.5" />
  <path d="M320 240 C315 245 310 250 305 255 C300 260 295 265 290 270" stroke="#F87171" stroke-opacity="0.3" stroke-width="0.5" />
  <path d="M330 245 C320 250 310 255 300 260 C290 265 280 270 270 275" stroke="#F87171" stroke-opacity="0.2" stroke-width="0.5" />
</svg>