<?xml version="1.0" encoding="UTF-8"?>
<svg width="600" height="400" viewBox="0 0 600 400" fill="none" xmlns="http://www.w3.org/2000/svg">
  <!-- Soft gradient background -->
  <defs>
    <radialGradient id="softLight" cx="50%" cy="50%" r="50%" fx="50%" fy="50%">
      <stop offset="0%" style="stop-color:#E6F7F4;stop-opacity:1" />
      <stop offset="100%" style="stop-color:#D1EBE8;stop-opacity:1" />
    </radialGradient>
  </defs>

  <rect width="600" height="400" fill="url(#softLight)" />

  <!-- Halftone pattern -->
  <g opacity="0.1">
    <pattern id="dots" x="0" y="0" width="10" height="10" patternUnits="userSpaceOnUse">
      <circle cx="5" cy="5" r="1" fill="#70D7D2" />
    </pattern>
    <rect width="600" height="400" fill="url(#dots)" />
  </g>

  <!-- Main hands group -->
  <g transform="translate(300, 200)">
    <!-- Gentle shadow -->
    <ellipse cx="0" cy="10" rx="120" ry="70" fill="#4EB3A5" opacity="0.1" />

    <!-- Left hand -->
    <g transform="translate(-60, 0)">
      <path d="M-20 -40 C-40 -30 -50 0 -40 20 C-30 40 0 40 20 20 C40 0 30 -20 10 -30 C-10 -40 -30 -40 -20 -40Z" 
            fill="#F9D9C7" stroke="#243740" stroke-width="2"/>
      <path d="M-10 20 Q-20 30 -15 10 T0 -10 T-10 20" 
            fill="#F9D9C7" stroke="#243740" stroke-width="1.5"/>
    </g>

    <!-- Right hand -->
    <g transform="translate(60, 0)">
      <path d="M20 -40 C40 -30 50 0 40 20 C30 40 0 40 -20 20 C-40 0 -30 -20 -10 -30 C10 -40 30 -40 20 -40Z" 
            fill="#F9D9C7" stroke="#243740" stroke-width="2"/>
      <path d="M10 20 Q20 30 15 10 T0 -10 T10 20" 
            fill="#F9D9C7" stroke="#243740" stroke-width="1.5"/>
    </g>

    <!-- Connecting area -->
    <path d="M-30 0 C-20 -20 20 -20 30 0 C20 20 -20 20 -30 0Z" 
          fill="#F9D9C7" stroke="#243740" stroke-width="2"/>
  </g>

  <!-- Pop art accents -->
  <circle cx="180" cy="150" r="8" fill="#70D7D2" opacity="0.6" />
  <circle cx="420" cy="150" r="8" fill="#70D7D2" opacity="0.6" />
  <circle cx="180" cy="250" r="8" fill="#70D7D2" opacity="0.6" />
  <circle cx="420" cy="250" r="8" fill="#70D7D2" opacity="0.6" />

  <!-- Light beams -->
  <g opacity="0.2">
    <path d="M250 150 L350 150" stroke="#70D7D2" stroke-width="2" />
    <path d="M250 250 L350 250" stroke="#70D7D2" stroke-width="2" />
  </g>
</svg>