<?xml version="1.0" encoding="UTF-8" standalone="no"?>
<svg width="800" height="600" viewBox="0 0 800 600" xmlns="http://www.w3.org/2000/svg" xmlns:xlink="http://www.w3.org/1999/xlink">
  <defs>
    <!-- Primary brand color gradient -->
    <linearGradient id="primary-gradient" x1="0%" y1="0%" x2="100%" y2="100%">
      <stop offset="0%" stop-color="#70D7D2" />
      <stop offset="100%" stop-color="#3AB8B3" />
    </linearGradient>

    <!-- Secondary/accent color gradients -->
    <linearGradient id="accent1-gradient" x1="0%" y1="0%" x2="100%" y2="100%">
      <stop offset="0%" stop-color="#FFB199" />
      <stop offset="100%" stop-color="#FF8E7F" />
    </linearGradient>
    
    <linearGradient id="accent2-gradient" x1="0%" y1="0%" x2="100%" y2="100%">
      <stop offset="0%" stop-color="#A2DBFA" />
      <stop offset="100%" stop-color="#7CC0ED" />
    </linearGradient>
    
    <linearGradient id="accent3-gradient" x1="0%" y1="0%" x2="100%" y2="100%">
      <stop offset="0%" stop-color="#FFEAA7" />
      <stop offset="100%" stop-color="#FFD76E" />
    </linearGradient>
    
    <!-- Background gradient -->
    <linearGradient id="bg-gradient" x1="0%" y1="0%" x2="100%" y2="100%">
      <stop offset="0%" stop-color="#F0FDFD" />
      <stop offset="100%" stop-color="#E0F7F7" />
    </linearGradient>

    <!-- Filters -->
    <filter id="glow" x="-20%" y="-20%" width="140%" height="140%">
      <feGaussianBlur stdDeviation="8" result="blur" />
      <feComposite in="SourceGraphic" in2="blur" operator="over" />
    </filter>
    
    <filter id="shadow" x="-10%" y="-10%" width="120%" height="120%">
      <feDropShadow dx="4" dy="4" stdDeviation="8" flood-color="#0003" flood-opacity="0.3" />
    </filter>

    <!-- Patterns -->
    <pattern id="dots" patternUnits="userSpaceOnUse" width="30" height="30" patternTransform="rotate(45)">
      <circle cx="10" cy="10" r="3" fill="#70D7D2" opacity="0.15" />
    </pattern>
  </defs>

  <!-- Background with Patterns -->
  <rect width="800" height="600" fill="url(#bg-gradient)" rx="30" ry="30" />
  <rect width="800" height="600" fill="url(#dots)" opacity="0.5" rx="30" ry="30" />
  
  <!-- Large Background Shapes -->
  <circle cx="200" cy="150" r="180" fill="#70D7D240" />
  <circle cx="650" cy="450" r="200" fill="#A2DBFA30" />
  <circle cx="400" cy="300" r="280" fill="#FFEAA720" />
  
  <!-- Pop Art Circles Group - Left Side -->
  <g>
    <circle cx="120" cy="220" r="50" fill="url(#accent1-gradient)" filter="url(#shadow)" />
    <circle cx="180" cy="320" r="70" fill="url(#accent2-gradient)" filter="url(#shadow)" />
    <circle cx="80" cy="400" r="60" fill="url(#accent3-gradient)" filter="url(#shadow)" />
    <circle cx="200" cy="460" r="40" fill="url(#primary-gradient)" filter="url(#shadow)" />
  </g>
  
  <!-- Pop Art Circles Group - Right Side -->
  <g>
    <circle cx="620" cy="180" r="60" fill="url(#primary-gradient)" filter="url(#shadow)" />
    <circle cx="700" cy="260" r="45" fill="url(#accent3-gradient)" filter="url(#shadow)" />
    <circle cx="640" cy="350" r="55" fill="url(#accent1-gradient)" filter="url(#shadow)" />
  </g>
  
  <!-- Central Image - Pop Art Style Heart with Hands -->
  <g transform="translate(400, 300)" filter="url(#shadow)">
    <!-- Pop Art Heart -->
    <path d="M0,80 C-100,10 -120,-80 -60,-80 C-20,-80 0,-40 0,-40 C0,-40 20,-80 60,-80 C120,-80 100,10 0,80 Z" 
          fill="url(#accent1-gradient)" stroke="#FFFFFF" stroke-width="6" />
    
    <!-- Left Hand - Supporting -->
    <path d="M-80,-20 C-100,-40 -90,-70 -70,-70 C-50,-70 -40,-40 -30,-40 C-20,-40 -15,-60 0,-60 C0,-60 -5,-30 -30,-20 C-50,-10 -60,0 -80,-20 Z" 
          fill="url(#primary-gradient)" stroke="#FFFFFF" stroke-width="3" />
    
    <!-- Right Hand - Supporting -->
    <path d="M80,-20 C100,-40 90,-70 70,-70 C50,-70 40,-40 30,-40 C20,-40 15,-60 0,-60 C0,-60 5,-30 30,-20 C50,-10 60,0 80,-20 Z" 
          fill="url(#accent2-gradient)" stroke="#FFFFFF" stroke-width="3" />
    
    <!-- Decorative Center Elements -->
    <circle cx="0" cy="0" r="30" fill="#FFFFFF" stroke="url(#accent3-gradient)" stroke-width="5" />
    <circle cx="0" cy="0" r="20" fill="url(#accent3-gradient)" />
    <circle cx="0" cy="0" r="10" fill="#FFFFFF" />
    
    <!-- Radiating Lines - Energy/Healing -->
    <g stroke="#FFFFFF" stroke-width="3" stroke-linecap="round">
      <line x1="-40" y1="-40" x2="-30" y2="-30" />
      <line x1="40" y1="-40" x2="30" y2="-30" />
      <line x1="-40" y1="40" x2="-30" y2="30" />
      <line x1="40" y1="40" x2="30" y2="30" />
      <line x1="0" y1="-50" x2="0" y2="-35" />
      <line x1="0" y1="50" x2="0" y2="35" />
      <line x1="-50" y1="0" x2="-35" y2="0" />
      <line x1="50" y1="0" x2="35" y2="0" />
    </g>
  </g>
  
  <!-- Decorative Elements -->
  <g opacity="0.8">
    <!-- Wavy Lines -->
    <path d="M100,500 C200,450 300,550 400,500 S600,450 700,500" 
          fill="none" stroke="url(#accent2-gradient)" stroke-width="6" stroke-linecap="round" />
    
    <path d="M100,520 C200,470 300,570 400,520 S600,470 700,520" 
          fill="none" stroke="url(#accent3-gradient)" stroke-width="6" stroke-linecap="round" />
    
    <!-- Pop Art Decorative Shapes Instead of Text -->
    <g transform="translate(400, 140)">
      <rect x="-120" y="-20" width="240" height="40" rx="20" ry="20" fill="#FFFFFF" filter="url(#shadow)" />
      <!-- Decorative Elements Instead of Text -->
      <rect x="-100" y="-10" width="40" height="20" rx="10" ry="10" fill="#70D7D2" />
      <rect x="-50" y="-10" width="40" height="20" rx="10" ry="10" fill="#FFB199" />
      <rect x="0" y="-10" width="40" height="20" rx="10" ry="10" fill="#A2DBFA" />
      <rect x="50" y="-10" width="40" height="20" rx="10" ry="10" fill="#FFEAA7" />
    </g>
    
    <g transform="translate(400, 460)">
      <rect x="-120" y="-20" width="240" height="40" rx="20" ry="20" fill="#FFFFFF" filter="url(#shadow)" />
      <!-- Decorative Elements Instead of Text -->
      <rect x="-100" y="-10" width="40" height="20" rx="10" ry="10" fill="#FFEAA7" />
      <rect x="-50" y="-10" width="40" height="20" rx="10" ry="10" fill="#A2DBFA" />
      <rect x="0" y="-10" width="40" height="20" rx="10" ry="10" fill="#FFB199" />
      <rect x="50" y="-10" width="40" height="20" rx="10" ry="10" fill="#70D7D2" />
    </g>
  </g>
  
  <!-- Comic-style Burst Elements -->
  <g>
    <path d="M260,50 L280,30 L285,55 L310,60 L285,70 L280,95 L270,70 L245,65 Z" fill="#FFD76E" filter="url(#glow)" />
    <path d="M550,80 L570,60 L575,85 L600,90 L575,100 L570,125 L560,100 L535,95 Z" fill="#FF8E7F" filter="url(#glow)" />
    <path d="M700,380 L720,360 L725,385 L750,390 L725,400 L720,425 L710,400 L685,395 Z" fill="#7CC0ED" filter="url(#glow)" />
  </g>
  
  <!-- Additional Pop Art Elements - Floating Shapes -->
  <g>
    <!-- Pop Art Dots Pattern - Left -->
    <circle cx="100" cy="200" r="8" fill="#FFFFFF" />
    <circle cx="130" cy="200" r="8" fill="#FFFFFF" />
    <circle cx="160" cy="200" r="8" fill="#FFFFFF" />
    <circle cx="100" cy="230" r="8" fill="#FFFFFF" />
    <circle cx="130" cy="230" r="8" fill="#FFFFFF" />
    <circle cx="160" cy="230" r="8" fill="#FFFFFF" />
    
    <!-- Pop Art Dots Pattern - Right -->
    <circle cx="640" cy="400" r="8" fill="#FFFFFF" />
    <circle cx="670" cy="400" r="8" fill="#FFFFFF" />
    <circle cx="700" cy="400" r="8" fill="#FFFFFF" />
    <circle cx="640" cy="430" r="8" fill="#FFFFFF" />
    <circle cx="670" cy="430" r="8" fill="#FFFFFF" />
    <circle cx="700" cy="430" r="8" fill="#FFFFFF" />
    
    <!-- Halftone Effect Circles -->
    <circle cx="200" cy="100" r="5" fill="#70D7D2" />
    <circle cx="220" cy="100" r="4" fill="#70D7D2" />
    <circle cx="240" cy="100" r="3" fill="#70D7D2" />
    <circle cx="260" cy="100" r="2" fill="#70D7D2" />
    <circle cx="280" cy="100" r="1" fill="#70D7D2" />
    
    <circle cx="600" cy="500" r="5" fill="#FF8E7F" />
    <circle cx="580" cy="500" r="4" fill="#FF8E7F" />
    <circle cx="560" cy="500" r="3" fill="#FF8E7F" />
    <circle cx="540" cy="500" r="2" fill="#FF8E7F" />
    <circle cx="520" cy="500" r="1" fill="#FF8E7F" />
  </g>
  
  <!-- Dynamic Animation Elements -->
  <animate 
    xlink:href="#accent1-gradient" 
    attributeName="x1" 
    values="0%;100%;0%" 
    dur="15s" 
    repeatCount="indefinite" />
  
  <animate 
    xlink:href="#accent2-gradient" 
    attributeName="x1" 
    values="0%;100%;0%" 
    dur="12s" 
    repeatCount="indefinite" />
</svg>