<?xml version="1.0" encoding="UTF-8" standalone="no"?>
<svg width="600" height="400" viewBox="0 0 600 400" fill="none" xmlns="http://www.w3.org/2000/svg">
  <!-- Clean background with subtle gradient -->
  <defs>
    <linearGradient id="bgGradient" x1="300" y1="0" x2="300" y2="400" gradientUnits="userSpaceOnUse">
      <stop offset="0%" stop-color="#F9FDFC" /> <!-- Very light mint -->
      <stop offset="100%" stop-color="#E6F7F4" /> <!-- Classic background mint -->
    </linearGradient>
  </defs>
  
  <!-- Background -->
  <rect width="600" height="400" rx="20" fill="url(#bgGradient)" />
  
  <!-- Minimal horizon line -->
  <line x1="0" y1="250" x2="600" y2="250" stroke="#5B9D8A" stroke-opacity="0.1" stroke-width="1" />
  
  <!-- Geometric sun/light source -->
  <circle cx="300" cy="120" r="40" fill="#F3C98B" fill-opacity="0.15" />
  <circle cx="300" cy="120" r="30" fill="#F3C98B" fill-opacity="0.10" />
  <circle cx="300" cy="120" r="20" fill="#F3C98B" fill-opacity="0.05" />
  
  <!-- Minimalist geometric mountains in distance -->
  <polygon points="100,250 180,180 260,250" fill="#5B9D8A" fill-opacity="0.05" stroke="#5B9D8A" stroke-opacity="0.1" stroke-width="1" />
  <polygon points="220,250 300,170 380,250" fill="#7BBEAD" fill-opacity="0.07" stroke="#7BBEAD" stroke-opacity="0.1" stroke-width="1" />
  <polygon points="340,250 420,190 500,250" fill="#5B9D8A" fill-opacity="0.05" stroke="#5B9D8A" stroke-opacity="0.1" stroke-width="1" />
  
  <!-- Elegant geometric ground elements -->
  <rect x="0" y="250" width="600" height="150" fill="#8ED1BD" fill-opacity="0.03" />
  <rect x="0" y="280" width="600" height="120" fill="#8ED1BD" fill-opacity="0.04" />
  <rect x="0" y="310" width="600" height="90" fill="#8ED1BD" fill-opacity="0.05" />
  <rect x="0" y="340" width="600" height="60" fill="#8ED1BD" fill-opacity="0.06" />
  <rect x="0" y="370" width="600" height="30" fill="#8ED1BD" fill-opacity="0.07" />
  
  <!-- Stylized path - clean simple lines -->
  <path d="M200 400C220 370 250 350 300 330C350 350 380 370 400 400" stroke="#D4C3A9" stroke-opacity="0.2" stroke-width="10" stroke-linecap="round" />
  <path d="M200 400C220 370 250 350 300 330C350 350 380 370 400 400" stroke="#E2D8C6" stroke-opacity="0.3" stroke-width="6" stroke-linecap="round" />
  <path d="M200 400C220 370 250 350 300 330C350 350 380 370 400 400" stroke="#F3C98B" stroke-opacity="0.1" stroke-width="1" stroke-linecap="round" />
  
  <!-- Geometric trees/elements - minimalist -->
  <rect x="150" y="300" width="1" height="20" fill="#5B9D8A" fill-opacity="0.4" />
  <polygon points="145,300 150,280 155,300" fill="#5B9D8A" fill-opacity="0.4" />
  
  <rect x="170" y="320" width="1" height="15" fill="#5B9D8A" fill-opacity="0.4" />
  <polygon points="165,320 170,305 175,320" fill="#5B9D8A" fill-opacity="0.4" />
  
  <rect x="430" y="300" width="1" height="20" fill="#5B9D8A" fill-opacity="0.4" />
  <polygon points="425,300 430,280 435,300" fill="#5B9D8A" fill-opacity="0.4" />
  
  <rect x="450" y="320" width="1" height="15" fill="#5B9D8A" fill-opacity="0.4" />
  <polygon points="445,320 450,305 455,320" fill="#5B9D8A" fill-opacity="0.4" />
  
  <!-- Abstract circular elements - representing growth -->
  <circle cx="300" cy="260" r="5" fill="#A7C7E7" fill-opacity="0.4" />
  
  <!-- Subtle grid pattern for depth -->
  <line x1="150" y1="250" x2="150" y2="400" stroke="#5B9D8A" stroke-opacity="0.02" stroke-width="1" />
  <line x1="300" y1="250" x2="300" y2="400" stroke="#5B9D8A" stroke-opacity="0.02" stroke-width="1" />
  <line x1="450" y1="250" x2="450" y2="400" stroke="#5B9D8A" stroke-opacity="0.02" stroke-width="1" />
  
  <line x1="0" y1="280" x2="600" y2="280" stroke="#5B9D8A" stroke-opacity="0.02" stroke-width="1" />
  <line x1="0" y1="310" x2="600" y2="310" stroke="#5B9D8A" stroke-opacity="0.02" stroke-width="1" />
  <line x1="0" y1="340" x2="600" y2="340" stroke="#5B9D8A" stroke-opacity="0.02" stroke-width="1" />
  <line x1="0" y1="370" x2="600" y2="370" stroke="#5B9D8A" stroke-opacity="0.02" stroke-width="1" />
  
  <!-- Subtle light rays -->
  <line x1="300" y1="120" x2="280" y2="150" stroke="#F3C98B" stroke-opacity="0.1" stroke-width="1" />
  <line x1="300" y1="120" x2="320" y2="150" stroke="#F3C98B" stroke-opacity="0.1" stroke-width="1" />
  <line x1="300" y1="120" x2="300" y2="160" stroke="#F3C98B" stroke-opacity="0.1" stroke-width="1" />
  <line x1="300" y1="120" x2="270" y2="135" stroke="#F3C98B" stroke-opacity="0.1" stroke-width="1" />
  <line x1="300" y1="120" x2="330" y2="135" stroke="#F3C98B" stroke-opacity="0.1" stroke-width="1" />
  
  <!-- Subtle abstract geometric elements -->
  <circle cx="260" cy="290" r="2" fill="#5B9D8A" fill-opacity="0.3" />
  <circle cx="340" cy="290" r="2" fill="#5B9D8A" fill-opacity="0.3" />
  <rect x="299" y="290" width="2" height="2" fill="#5B9D8A" fill-opacity="0.3" />
  
  <circle cx="240" cy="320" r="2" fill="#5B9D8A" fill-opacity="0.3" />
  <circle cx="360" cy="320" r="2" fill="#5B9D8A" fill-opacity="0.3" />
  <rect x="299" y="320" width="2" height="2" fill="#5B9D8A" fill-opacity="0.3" />
</svg>