<?xml version="1.0" encoding="UTF-8" standalone="no"?>
<svg width="600" height="400" viewBox="0 0 600 400" fill="none" xmlns="http://www.w3.org/2000/svg">
  <!-- Background gradient -->
  <rect width="600" height="400" rx="20" fill="url(#paint0_linear)" />
  
  <!-- Far mountain range -->
  <path d="M0 220L60 180L120 210L180 160L240 190L300 150L360 190L420 160L480 200L540 170L600 190V400H0V220Z" fill="#A9BEC5" fill-opacity="0.1" />
  
  <!-- Middle mountain range -->
  <path d="M0 250L70 190L140 230L210 180L280 220L350 170L420 220L490 180L560 210L600 190V400H0V250Z" fill="#7BBEAD" fill-opacity="0.2" />
  
  <!-- Near mountain range -->
  <path d="M0 280L50 240L100 260L150 220L200 270L250 210L300 260L350 220L400 280L450 230L500 270L550 240L600 270V400H0V280Z" fill="#5B9D8A" fill-opacity="0.3" />
  
  <!-- Reflective lake -->
  <path d="M0 330H600V400H0V330Z" fill="#7BBEAD" fill-opacity="0.3" />
  
  <!-- Lake reflections -->
  <path d="M50 330L50 400" stroke="#FFFFFF" stroke-opacity="0.1" stroke-width="1" />
  <path d="M150 330L150 400" stroke="#FFFFFF" stroke-opacity="0.1" stroke-width="1" />
  <path d="M250 330L250 400" stroke="#FFFFFF" stroke-opacity="0.1" stroke-width="1" />
  <path d="M350 330L350 400" stroke="#FFFFFF" stroke-opacity="0.1" stroke-width="1" />
  <path d="M450 330L450 400" stroke="#FFFFFF" stroke-opacity="0.1" stroke-width="1" />
  <path d="M550 330L550 400" stroke="#FFFFFF" stroke-opacity="0.1" stroke-width="1" />
  
  <!-- Lake ripples -->
  <path d="M100 350C150 345 200 355 250 350C300 345 350 355 400 350C450 345 500 355 550 350" stroke="#FFFFFF" stroke-opacity="0.2" stroke-width="1" />
  <path d="M100 370C150 365 200 375 250 370C300 365 350 375 400 370C450 365 500 375 550 370" stroke="#FFFFFF" stroke-opacity="0.2" stroke-width="1" />
  <path d="M100 390C150 385 200 395 250 390C300 385 350 395 400 390C450 385 500 395 550 390" stroke="#FFFFFF" stroke-opacity="0.2" stroke-width="1" />
  
  <!-- Trees on near mountains -->
  <path d="M120 280L120 290" stroke="#5B9D8A" stroke-width="2" stroke-linecap="round" />
  <path d="M120 265L110 280L130 280L120 265Z" fill="#5B9D8A" />
  
  <path d="M140 270L140 280" stroke="#5B9D8A" stroke-width="2" stroke-linecap="round" />
  <path d="M140 255L130 270L150 270L140 255Z" fill="#5B9D8A" />
  
  <path d="M230 260L230 270" stroke="#5B9D8A" stroke-width="2" stroke-linecap="round" />
  <path d="M230 245L220 260L240 260L230 245Z" fill="#5B9D8A" />
  
  <path d="M320 260L320 270" stroke="#5B9D8A" stroke-width="2" stroke-linecap="round" />
  <path d="M320 245L310 260L330 260L320 245Z" fill="#5B9D8A" />
  
  <path d="M370 270L370 280" stroke="#5B9D8A" stroke-width="2" stroke-linecap="round" />
  <path d="M370 255L360 270L380 270L370 255Z" fill="#5B9D8A" />
  
  <path d="M470 270L470 280" stroke="#5B9D8A" stroke-width="2" stroke-linecap="round" />
  <path d="M470 255L460 270L480 270L470 255Z" fill="#5B9D8A" />
  
  <path d="M520 270L520 280" stroke="#5B9D8A" stroke-width="2" stroke-linecap="round" />
  <path d="M520 255L510 270L530 270L520 255Z" fill="#5B9D8A" />
  
  <!-- Foreground person in meditation -->
  <ellipse cx="300" cy="310" rx="8" ry="2" fill="#5B9D8A" fill-opacity="0.5" />
  <path d="M300 290C300 290 296 300 294 305C292 310 294 310 300 310C306 310 308 310 306 305C304 300 300 290 300 290Z" fill="#5B9D8A" />
  <circle cx="300" cy="285" r="5" fill="#5B9D8A" />
  <path d="M292 298L285 290" stroke="#5B9D8A" stroke-width="2" stroke-linecap="round" />
  <path d="M308 298L315 290" stroke="#5B9D8A" stroke-width="2" stroke-linecap="round" />
  
  <!-- Clouds in sky -->
  <ellipse cx="120" cy="100" rx="30" ry="15" fill="white" fill-opacity="0.6" />
  <ellipse cx="150" cy="110" rx="25" ry="12" fill="white" fill-opacity="0.6" />
  <ellipse cx="180" cy="105" rx="20" ry="10" fill="white" fill-opacity="0.6" />
  
  <ellipse cx="420" cy="90" rx="35" ry="18" fill="white" fill-opacity="0.6" />
  <ellipse cx="450" cy="100" rx="25" ry="15" fill="white" fill-opacity="0.6" />
  <ellipse cx="480" cy="95" rx="30" ry="12" fill="white" fill-opacity="0.6" />
  
  <!-- Sun rays -->
  <circle cx="300" cy="80" r="30" fill="#F3C98B" fill-opacity="0.3" />
  <circle cx="300" cy="80" r="20" fill="#F3C98B" fill-opacity="0.5" />
  
  <path d="M300 40L300 10" stroke="#F3C98B" stroke-opacity="0.3" stroke-width="2" />
  <path d="M260 50L240 25" stroke="#F3C98B" stroke-opacity="0.3" stroke-width="2" />
  <path d="M230 80L200 70" stroke="#F3C98B" stroke-opacity="0.3" stroke-width="2" />
  <path d="M340 50L360 25" stroke="#F3C98B" stroke-opacity="0.3" stroke-width="2" />
  <path d="M370 80L400 70" stroke="#F3C98B" stroke-opacity="0.3" stroke-width="2" />
  
  <!-- Flying birds -->
  <path d="M220 120C225 115 230 117 235 115C230 117 225 120 220 120Z" fill="#5B9D8A" fill-opacity="0.5" />
  <path d="M240 140C245 135 250 137 255 135C250 137 245 140 240 140Z" fill="#5B9D8A" fill-opacity="0.5" />
  <path d="M380 130C385 125 390 127 395 125C390 127 385 130 380 130Z" fill="#5B9D8A" fill-opacity="0.5" />
  
  <!-- Gradients definitions -->
  <defs>
    <linearGradient id="paint0_linear" x1="300" y1="0" x2="300" y2="400" gradientUnits="userSpaceOnUse">
      <stop stop-color="#E6F7F4" />
      <stop offset="1" stop-color="#FFFFFF" />
    </linearGradient>
  </defs>
</svg>