<?xml version="1.0" encoding="UTF-8"?>
<svg width="600" height="400" viewBox="0 0 600 400" fill="none" xmlns="http://www.w3.org/2000/svg">
  <!-- Background with soft gradient -->
  <rect width="600" height="400" rx="20" fill="url(#paint0_linear)" />
  
  <!-- Abstract mountain/landscape elements -->
  <path d="M0 250C40 220 80 240 120 230C160 220 200 180 240 200C280 220 320 250 360 240C400 230 440 200 480 210C520 220 560 240 600 220" 
        fill="url(#landscapeGradient)" opacity="0.3" />
  
  <path d="M0 300C50 280 100 290 150 270C200 250 250 270 300 260C350 250 400 230 450 250C500 270 550 250 600 240" 
        fill="url(#landscapeGradient2)" opacity="0.2" />
  
  <!-- Central terrarium/glass container -->
  <circle cx="300" cy="200" r="110" fill="url(#terraGradient)" opacity="0.6" />
  <ellipse cx="300" cy="200" rx="108" ry="108" stroke="white" stroke-width="0.5" opacity="0.7" />
  <ellipse cx="300" cy="200" rx="104" ry="104" stroke="white" stroke-width="0.3" opacity="0.5" />
  
  <!-- Tree silhouettes inside terrarium -->
  <g opacity="0.9">
    <!-- Central tree -->
    <path d="M300 280C300 280 280 240 290 200C300 160 300 150 300 150C300 150 300 160 310 200C320 240 300 280 300 280Z" 
          fill="#4EB3A5" opacity="0.9" />
    <!-- Tree branches -->
    <path d="M300 200C310 190 320 195 330 190" stroke="#4EB3A5" stroke-width="2" />
    <path d="M300 180C310 175 315 170 325 175" stroke="#4EB3A5" stroke-width="1.5" />
    <path d="M300 220C310 215 320 225 330 215" stroke="#4EB3A5" stroke-width="2" />
    
    <path d="M300 200C290 190 280 195 270 190" stroke="#4EB3A5" stroke-width="2" />
    <path d="M300 180C290 175 285 170 275 175" stroke="#4EB3A5" stroke-width="1.5" />
    <path d="M300 220C290 215 280 225 270 215" stroke="#4EB3A5" stroke-width="2" />
  </g>
  
  <!-- Birds -->
  <path d="M260 150C255 145 250 147 248 150C246 153 250 155 255 150" fill="#4EB3A5" />
  <path d="M350 160C345 155 340 157 338 160C336 163 340 165 345 160" fill="#4EB3A5" />
  <path d="M320 130C315 125 310 127 308 130C306 133 310 135 315 130" fill="#4EB3A5" />
  
  <!-- Clouds -->
  <path d="M220 120C220 110 230 105 240 110C240 100 250 95 260 100C270 95 280 100 280 110C290 105 300 110 300 120C300 130 290 140 270 140C250 140 220 135 220 120Z" 
        fill="white" opacity="0.6" />
  
  <path d="M320 140C320 130 330 125 340 130C340 120 350 115 360 120C370 115 380 120 380 130C390 125 400 130 400 140C400 150 390 160 370 160C350 160 320 155 320 140Z" 
        fill="white" opacity="0.5" />
  
  <!-- Terrain/ground -->
  <path d="M200 300C210 290 220 295 230 290C240 285 250 290 260 285C270 280 280 285 290 280C300 275 310 280 320 275C330 270 340 275 350 270C360 265 370 270 380 265C390 260 400 265 410 260" 
        stroke="#4EB3A5" stroke-width="2" stroke-linecap="round" opacity="0.8" />
  
  <!-- Small plants/flowers at bottom -->
  <!-- Plant 1 -->
  <path d="M230 290C230 280 235 275 240 280C245 275 250 280 250 290" stroke="#4EB3A5" stroke-width="1.5" stroke-linecap="round" />
  <circle cx="240" cy="270" r="5" fill="#FF9E9E" opacity="0.9" />
  
  <!-- Plant 2 -->
  <path d="M300 280C300 270 305 265 310 270C315 265 320 270 320 280" stroke="#4EB3A5" stroke-width="1.5" stroke-linecap="round" />
  <circle cx="310" cy="260" r="5" fill="#FF9E9E" opacity="0.9" />
  
  <!-- Plant 3 -->
  <path d="M370 290C370 280 375 275 380 280C385 275 390 280 390 290" stroke="#4EB3A5" stroke-width="1.5" stroke-linecap="round" />
  <circle cx="380" cy="270" r="5" fill="#FF9E9E" opacity="0.9" />
  
  <!-- Sun rays -->
  <g opacity="0.15">
    <circle cx="300" cy="120" r="30" fill="white" />
    <path d="M300 60L300 180" stroke="white" stroke-width="20" stroke-linecap="round" />
    <path d="M240 120L360 120" stroke="white" stroke-width="20" stroke-linecap="round" />
    <path d="M255 75L345 165" stroke="white" stroke-width="15" stroke-linecap="round" />
    <path d="M255 165L345 75" stroke="white" stroke-width="15" stroke-linecap="round" />
  </g>
  
  <!-- Small decorative elements -->
  <circle cx="260" cy="200" r="2" fill="white" opacity="0.8" />
  <circle cx="220" cy="180" r="1.5" fill="white" opacity="0.7" />
  <circle cx="340" cy="200" r="2" fill="white" opacity="0.8" />
  <circle cx="380" cy="180" r="1.5" fill="white" opacity="0.7" />
  <circle cx="300" cy="150" r="2" fill="white" opacity="0.8" />
  
  <!-- Gradient definitions -->
  <defs>
    <linearGradient id="paint0_linear" x1="300" y1="0" x2="300" y2="400" gradientUnits="userSpaceOnUse">
      <stop offset="0" stop-color="#E6F7F4" />
      <stop offset="1" stop-color="#C6ECE6" />
    </linearGradient>
    
    <linearGradient id="landscapeGradient" x1="0" y1="220" x2="600" y2="220" gradientUnits="userSpaceOnUse">
      <stop offset="0" stop-color="#4EB3A5" />
      <stop offset="0.5" stop-color="#73C8BD" />
      <stop offset="1" stop-color="#4EB3A5" />
    </linearGradient>
    
    <linearGradient id="landscapeGradient2" x1="0" y1="270" x2="600" y2="270" gradientUnits="userSpaceOnUse">
      <stop offset="0" stop-color="#73C8BD" />
      <stop offset="0.5" stop-color="#4EB3A5" />
      <stop offset="1" stop-color="#73C8BD" />
    </linearGradient>
    
    <radialGradient id="terraGradient" cx="300" cy="180" r="130" gradientUnits="userSpaceOnUse">
      <stop offset="0" stop-color="white" stop-opacity="0.7" />
      <stop offset="0.7" stop-color="white" stop-opacity="0.3" />
      <stop offset="1" stop-color="white" stop-opacity="0.1" />
    </radialGradient>
  </defs>
</svg>