<?xml version="1.0" encoding="UTF-8"?>
<svg width="600" height="400" viewBox="0 0 600 400" fill="none" xmlns="http://www.w3.org/2000/svg">
  <!-- Soft gradient background -->
  <rect width="600" height="400" rx="20" fill="url(#paint0_linear)" />
  
  <!-- Soft organic wave patterns -->
  <path d="M0 150C50 130 100 140 150 130C200 120 250 140 300 130C350 120 400 100 450 120C500 140 550 160 600 140" 
        stroke="url(#waveGradient)" stroke-width="2" stroke-linecap="round" opacity="0.4" />
        
  <path d="M0 200C60 180 120 190 180 200C240 210 300 190 360 200C420 210 480 230 540 220C600 210" 
        stroke="url(#waveGradient)" stroke-width="3" stroke-linecap="round" opacity="0.3" />
        
  <path d="M0 250C70 240 140 260 210 250C280 240 350 230 420 240C490 250 550 270 600 250" 
        stroke="url(#waveGradient)" stroke-width="2" stroke-linecap="round" opacity="0.4" />
  
  <!-- Geometric frame surrounding organic elements -->
  <rect x="150" y="80" width="300" height="240" rx="20" stroke="#4EB3A5" stroke-width="1" stroke-opacity="0.4" fill="none" />
  <rect x="170" y="100" width="260" height="200" rx="10" stroke="#4EB3A5" stroke-width="1" stroke-opacity="0.3" fill="none" />
  
  <!-- Central element - combination of geometric and organic -->
  <g>
    <!-- Backdrop circle -->
    <circle cx="300" cy="200" r="80" fill="white" opacity="0.8" />
    <circle cx="300" cy="200" r="78" stroke="#4EB3A5" stroke-width="0.5" stroke-opacity="0.6" fill="none" />
    
    <!-- Geometric grid pattern -->
    <line x1="220" y1="200" x2="380" y2="200" stroke="#4EB3A5" stroke-width="0.5" stroke-opacity="0.2" />
    <line x1="300" y1="120" x2="300" y2="280" stroke="#4EB3A5" stroke-width="0.5" stroke-opacity="0.2" />
    <circle cx="300" cy="200" r="40" stroke="#4EB3A5" stroke-width="0.5" stroke-opacity="0.3" fill="none" />
    
    <!-- Organic tree/plant element -->
    <path d="M300 240C300 240 290 230 295 210C300 190 300 180 300 180C300 180 300 190 305 210C310 230 300 240 300 240Z" 
          fill="#4EB3A5" opacity="0.7" />
    
    <!-- Tree branches -->
    <path d="M300 210C305 205 310 207 315 205" stroke="#4EB3A5" stroke-width="1.5" stroke-opacity="0.7" />
    <path d="M300 200C305 195 308 197 312 195" stroke="#4EB3A5" stroke-width="1.2" stroke-opacity="0.7" />
    <path d="M300 210C295 205 290 207 285 205" stroke="#4EB3A5" stroke-width="1.5" stroke-opacity="0.7" />
    <path d="M300 200C295 195 292 197 288 195" stroke="#4EB3A5" stroke-width="1.2" stroke-opacity="0.7" />
    
    <!-- Flower blossom -->
    <g transform="translate(300, 180)">
      <circle cx="0" cy="0" r="12" fill="#FF9E9E" opacity="0.8" />
      
      <!-- Petals -->
      <g opacity="0.9">
        <path d="M0 -10C3 -15 8 -15 10 -10C12 -5 10 0 5 0C0 0 -2 -5 0 -10Z" fill="#FF8A8A" />
        <path d="M7 -7C12 -10 17 -8 17 -3C17 2 12 5 7 3C2 1 2 -4 7 -7Z" fill="#FF8A8A" />
        <path d="M10 0C15 -3 20 0 18 5C16 10 10 12 5 10C0 8 5 3 10 0Z" fill="#FF8A8A" />
        <path d="M7 7C10 12 8 17 3 17C-2 17 -5 12 -3 7C-1 2 4 2 7 7Z" fill="#FF8A8A" />
        <path d="M0 10C-3 15 -8 15 -10 10C-12 5 -10 0 -5 0C0 0 2 5 0 10Z" fill="#FF8A8A" />
        <path d="M-7 7C-12 10 -17 8 -17 3C-17 -2 -12 -5 -7 -3C-2 -1 -2 4 -7 7Z" fill="#FF8A8A" />
        <path d="M-10 0C-15 3 -20 0 -18 -5C-16 -10 -10 -12 -5 -10C0 -8 -5 -3 -10 0Z" fill="#FF8A8A" />
        <path d="M-7 -7C-10 -12 -8 -17 -3 -17C2 -17 5 -12 3 -7C1 -2 -4 -2 -7 -7Z" fill="#FF8A8A" />
      </g>
      
      <!-- Center -->
      <circle cx="0" cy="0" r="5" fill="#FFD700" />
    </g>
  </g>
  
  <!-- Decorative corner elements - combining geometric and organic -->
  <!-- Top left -->
  <g transform="translate(180, 120)">
    <rect x="-10" y="-10" width="20" height="20" fill="#4EB3A5" opacity="0.1" />
    <circle cx="0" cy="0" r="8" fill="#4EB3A5" opacity="0.2" />
    <path d="M-3 -3C-1 -5 1 -5 3 -3C5 -1 5 1 3 3C1 5 -1 5 -3 3C-5 1 -5 -1 -3 -3Z" fill="#4EB3A5" opacity="0.5" />
  </g>
  
  <!-- Top right -->
  <g transform="translate(420, 120)">
    <rect x="-10" y="-10" width="20" height="20" fill="#4EB3A5" opacity="0.1" />
    <circle cx="0" cy="0" r="8" fill="#4EB3A5" opacity="0.2" />
    <path d="M-3 -3C-1 -5 1 -5 3 -3C5 -1 5 1 3 3C1 5 -1 5 -3 3C-5 1 -5 -1 -3 -3Z" fill="#4EB3A5" opacity="0.5" />
  </g>
  
  <!-- Bottom left -->
  <g transform="translate(180, 280)">
    <rect x="-10" y="-10" width="20" height="20" fill="#4EB3A5" opacity="0.1" />
    <circle cx="0" cy="0" r="8" fill="#4EB3A5" opacity="0.2" />
    <path d="M-3 -3C-1 -5 1 -5 3 -3C5 -1 5 1 3 3C1 5 -1 5 -3 3C-5 1 -5 -1 -3 -3Z" fill="#4EB3A5" opacity="0.5" />
  </g>
  
  <!-- Bottom right -->
  <g transform="translate(420, 280)">
    <rect x="-10" y="-10" width="20" height="20" fill="#4EB3A5" opacity="0.1" />
    <circle cx="0" cy="0" r="8" fill="#4EB3A5" opacity="0.2" />
    <path d="M-3 -3C-1 -5 1 -5 3 -3C5 -1 5 1 3 3C1 5 -1 5 -3 3C-5 1 -5 -1 -3 -3Z" fill="#4EB3A5" opacity="0.5" />
  </g>
  
  <!-- Connection lines between elements -->
  <line x1="180" y1="120" x2="300" y2="180" stroke="#4EB3A5" stroke-width="0.5" stroke-opacity="0.3" />
  <line x1="420" y1="120" x2="300" y2="180" stroke="#4EB3A5" stroke-width="0.5" stroke-opacity="0.3" />
  <line x1="180" y1="280" x2="300" y2="240" stroke="#4EB3A5" stroke-width="0.5" stroke-opacity="0.3" />
  <line x1="420" y1="280" x2="300" y2="240" stroke="#4EB3A5" stroke-width="0.5" stroke-opacity="0.3" />
  
  <!-- Small decorative elements and sparkles -->
  <circle cx="250" cy="150" r="3" fill="white" opacity="0.6" />
  <circle cx="350" cy="150" r="3" fill="white" opacity="0.6" />
  <circle cx="250" cy="250" r="3" fill="white" opacity="0.6" />
  <circle cx="350" cy="250" r="3" fill="white" opacity="0.6" />
  
  <circle cx="220" cy="130" r="1.5" fill="#FFD700" opacity="0.8" />
  <circle cx="380" cy="130" r="1.5" fill="#FFD700" opacity="0.8" />
  <circle cx="220" cy="270" r="1.5" fill="#FFD700" opacity="0.8" />
  <circle cx="380" cy="270" r="1.5" fill="#FFD700" opacity="0.8" />
  
  <!-- Light effects -->
  <circle cx="300" cy="200" r="150" fill="url(#radialGlow)" opacity="0.2" />
  
  <!-- Gradient definitions -->
  <defs>
    <linearGradient id="paint0_linear" x1="300" y1="0" x2="300" y2="400" gradientUnits="userSpaceOnUse">
      <stop offset="0" stop-color="#E6F7F4" />
      <stop offset="1" stop-color="#DBF0EC" />
    </linearGradient>
    
    <linearGradient id="waveGradient" x1="0" y1="200" x2="600" y2="200" gradientUnits="userSpaceOnUse">
      <stop offset="0" stop-color="#4EB3A5" />
      <stop offset="0.5" stop-color="#73C8BD" />
      <stop offset="1" stop-color="#4EB3A5" />
    </linearGradient>
    
    <radialGradient id="radialGlow" cx="300" cy="200" r="150" gradientUnits="userSpaceOnUse">
      <stop offset="0" stop-color="white" stop-opacity="0.1" />
      <stop offset="1" stop-color="white" stop-opacity="0" />
    </radialGradient>
  </defs>
</svg>