<?xml version="1.0" encoding="UTF-8" standalone="no"?>
<svg width="600" height="400" viewBox="0 0 600 400" fill="none" xmlns="http://www.w3.org/2000/svg">
  <!-- Background gradient -->
  <rect width="600" height="400" rx="20" fill="url(#paint0_linear)" />
  
  <!-- Gentle rolling hills -->
  <path d="M0 300C50 280 100 290 150 310C200 330 250 340 300 320C350 300 400 290 450 310C500 330 550 320 600 300V400H0V300Z" fill="#8ED1BD" fill-opacity="0.3" />
  <path d="M0 320C50 300 100 310 150 330C200 350 250 360 300 340C350 320 400 310 450 330C500 350 550 340 600 320V400H0V320Z" fill="#7BBEAD" fill-opacity="0.2" />
  
  <!-- Path through the scene -->
  <path d="M250 400C250 380 270 360 300 340C330 320 350 290 350 260C350 230 340 210 330 200" stroke="#5B9D8A" stroke-width="3" stroke-linecap="round" stroke-dasharray="2 4" />
  
  <!-- Trees in foreground and background -->
  <!-- Large tree left -->
  <path d="M150 200C150 200 130 150 140 120C150 90 170 80 180 90C190 100 185 130 175 150" stroke="#5B9D8A" stroke-width="5" stroke-linecap="round" />
  <ellipse cx="150" cy="140" rx="30" ry="40" fill="#5B9D8A" fill-opacity="0.6" />
  <ellipse cx="150" cy="120" rx="25" ry="30" fill="#8ED1BD" fill-opacity="0.7" />
  
  <!-- Medium tree right -->
  <path d="M450 240C450 240 440 210 450 190C460 170 475 165 480 175C485 185 480 200 470 215" stroke="#5B9D8A" stroke-width="4" stroke-linecap="round" />
  <ellipse cx="450" cy="190" rx="25" ry="30" fill="#5B9D8A" fill-opacity="0.5" />
  <ellipse cx="450" cy="175" rx="20" ry="25" fill="#8ED1BD" fill-opacity="0.6" />
  
  <!-- Small trees scattered -->
  <path d="M200 260C200 260 195 240 200 230C205 220 215 215 220 225C225 235 220 245 215 255" stroke="#5B9D8A" stroke-width="3" stroke-linecap="round" />
  <ellipse cx="200" cy="235" rx="15" ry="20" fill="#8ED1BD" fill-opacity="0.5" />
  
  <path d="M400 270C400 270 395 250 400 240C405 230 415 225 420 235C425 245 420 255 415 265" stroke="#5B9D8A" stroke-width="3" stroke-linecap="round" />
  <ellipse cx="400" cy="245" rx="15" ry="20" fill="#8ED1BD" fill-opacity="0.5" />
  
  <!-- Distant trees silhouette -->
  <path d="M50 280C70 260 90 270 110 260C130 250 150 260 170 250C190 240 210 230 230 240C250 250 270 240 290 230" stroke="#5B9D8A" stroke-opacity="0.3" stroke-width="2" />
  <path d="M310 230C330 220 350 230 370 220C390 210 410 220 430 210C450 200 470 190 490 200C510 210 530 200 550 190" stroke="#5B9D8A" stroke-opacity="0.3" stroke-width="2" />
  
  <!-- Flowing water/stream -->
  <path d="M100 350C150 340 200 360 250 350C300 340 350 360 400 350C450 340 500 360 550 350" stroke="#7BBEAD" stroke-opacity="0.8" stroke-width="3" stroke-linecap="round" />
  <path d="M100 365C150 355 200 375 250 365C300 355 350 375 400 365C450 355 500 375 550 365" stroke="#7BBEAD" stroke-opacity="0.6" stroke-width="2" stroke-linecap="round" />
  
  <!-- Sunlight rays -->
  <path d="M300 50L270 80" stroke="#F3C98B" stroke-opacity="0.4" stroke-width="2" />
  <path d="M300 50L330 80" stroke="#F3C98B" stroke-opacity="0.4" stroke-width="2" />
  <path d="M300 50L300 90" stroke="#F3C98B" stroke-opacity="0.4" stroke-width="2" />
  <path d="M300 50L250 70" stroke="#F3C98B" stroke-opacity="0.4" stroke-width="2" />
  <path d="M300 50L350 70" stroke="#F3C98B" stroke-opacity="0.4" stroke-width="2" />
  
  <!-- Sun/light source -->
  <circle cx="300" cy="50" r="25" fill="#F3C98B" fill-opacity="0.6" />
  <circle cx="300" cy="50" r="15" fill="#F3C98B" fill-opacity="0.8" />
  
  <!-- Small detailed elements -->
  <circle cx="180" cy="310" r="5" fill="#8ED1BD" fill-opacity="0.7" />
  <circle cx="195" cy="320" r="3" fill="#8ED1BD" fill-opacity="0.7" />
  <circle cx="420" cy="315" r="5" fill="#8ED1BD" fill-opacity="0.7" />
  <circle cx="405" cy="325" r="3" fill="#8ED1BD" fill-opacity="0.7" />
  
  <!-- Stylized birds in flight -->
  <path d="M220 100C225 95 230 97 235 95C230 97 225 100 220 100Z" fill="#5B9D8A" />
  <path d="M240 80C245 75 250 77 255 75C250 77 245 80 240 80Z" fill="#5B9D8A" />
  <path d="M380 120C385 115 390 117 395 115C390 117 385 120 380 120Z" fill="#5B9D8A" />
  
  <!-- Gradients definitions -->
  <defs>
    <linearGradient id="paint0_linear" x1="300" y1="0" x2="300" y2="400" gradientUnits="userSpaceOnUse">
      <stop stop-color="#E6F7F4" />
      <stop offset="1" stop-color="#FFFFFF" />
    </linearGradient>
  </defs>
</svg>