<?xml version="1.0" encoding="UTF-8" standalone="no"?>
<svg width="600" height="400" viewBox="0 0 600 400" fill="none" xmlns="http://www.w3.org/2000/svg">
  <!-- Background gradient - gentle sunrise colors -->
  <defs>
    <linearGradient id="skyGradient" x1="300" y1="0" x2="300" y2="400" gradientUnits="userSpaceOnUse">
      <stop offset="0%" stop-color="#E6F7F4" /> <!-- Soft blue-green -->
      <stop offset="60%" stop-color="#F9F9F7" /> <!-- Pale yellow-white -->
      <stop offset="100%" stop-color="#FFFFFF" />
    </linearGradient>
    
    <!-- Soft glow filter -->
    <filter id="softGlow" x="-50%" y="-50%" width="200%" height="200%">
      <feGaussianBlur in="SourceGraphic" stdDeviation="4" />
    </filter>
    
    <!-- Garden path texture -->
    <pattern id="pathTexture" patternUnits="userSpaceOnUse" width="8" height="8" patternTransform="rotate(45)">
      <rect width="8" height="8" fill="#E2D8C6" fill-opacity="0.1" />
      <rect width="4" height="4" fill="#D4C3A9" fill-opacity="0.1" />
    </pattern>
  </defs>
  
  <!-- Background sky -->
  <rect width="600" height="400" rx="20" fill="url(#skyGradient)" />
  
  <!-- Sun - subtle and warm -->
  <circle cx="300" cy="100" r="40" fill="#F3C98B" fill-opacity="0.3" filter="url(#softGlow)" />
  <circle cx="300" cy="100" r="30" fill="#F3C98B" fill-opacity="0.4" filter="url(#softGlow)" />
  <circle cx="300" cy="100" r="20" fill="#F3C98B" fill-opacity="0.5" filter="url(#softGlow)" />
  
  <!-- Gentle sun rays -->
  <path d="M300 50L300 20" stroke="#F3C98B" stroke-opacity="0.3" stroke-width="1" />
  <path d="M340 70L360 40" stroke="#F3C98B" stroke-opacity="0.3" stroke-width="1" />
  <path d="M260 70L240 40" stroke="#F3C98B" stroke-opacity="0.3" stroke-width="1" />
  <path d="M370 100L400 100" stroke="#F3C98B" stroke-opacity="0.3" stroke-width="1" />
  <path d="M230 100L200 100" stroke="#F3C98B" stroke-opacity="0.3" stroke-width="1" />
  <path d="M340 130L360 160" stroke="#F3C98B" stroke-opacity="0.3" stroke-width="1" />
  <path d="M260 130L240 160" stroke="#F3C98B" stroke-opacity="0.3" stroke-width="1" />
  
  <!-- Distant hills/garden backdrop -->
  <path d="M0 220C50 210 100 215 150 205C200 195 250 205 300 190C350 205 400 195 450 205C500 215 550 210 600 220V400H0V220Z" fill="#7BBEAD" fill-opacity="0.2" />
  <path d="M0 240C60 230 120 235 180 225C240 215 300 225 360 215C420 225 480 215 540 225C600 235 600 240 600 240V400H0V240Z" fill="#8ED1BD" fill-opacity="0.15" />
  <path d="M0 260C50 250 100 255 150 245C200 235 250 245 300 235C350 245 400 235 450 245C500 255 550 250 600 260V400H0V260Z" fill="#5B9D8A" fill-opacity="0.1" />
  
  <!-- Garden features - stylized and soft -->
  <!-- Left side garden elements -->
  <path d="M80 260C80 260 70 230 90 220C110 210 125 230 115 245C105 260 95 255 80 260Z" fill="#6BAC9A" fill-opacity="0.5" />
  <path d="M150 270C150 270 140 240 160 230C180 220 195 240 185 255C175 270 165 265 150 270Z" fill="#8ED1BD" fill-opacity="0.4" />
  <path d="M120 290C120 290 110 260 130 250C150 240 165 260 155 275C145 290 135 285 120 290Z" fill="#6BAC9A" fill-opacity="0.4" />
  
  <!-- Right side garden elements -->
  <path d="M520 260C520 260 530 230 510 220C490 210 475 230 485 245C495 260 505 255 520 260Z" fill="#6BAC9A" fill-opacity="0.5" />
  <path d="M450 270C450 270 460 240 440 230C420 220 405 240 415 255C425 270 435 265 450 270Z" fill="#8ED1BD" fill-opacity="0.4" />
  <path d="M480 290C480 290 490 260 470 250C450 240 435 260 445 275C455 290 465 285 480 290Z" fill="#6BAC9A" fill-opacity="0.4" />
  
  <!-- Garden path - smooth and inviting -->
  <path d="M250 400C250 350 280 320 300 290C320 260 310 240 300 220" stroke="#D4C3A9" stroke-width="40" stroke-opacity="0.2" stroke-linecap="round" />
  <path d="M250 400C250 350 280 320 300 290C320 260 310 240 300 220" stroke="#E2D8C6" stroke-width="30" stroke-opacity="0.3" stroke-linecap="round" />
  <path d="M250 400C250 350 280 320 300 290C320 260 310 240 300 220" stroke="url(#pathTexture)" stroke-width="20" stroke-opacity="0.4" stroke-linecap="round" />
  
  <!-- Garden flowers and plants along the path -->
  <!-- Flowers group 1 -->
  <circle cx="220" cy="300" r="3" fill="#E57373" fill-opacity="0.5" />
  <circle cx="217" cy="297" r="2" fill="#E57373" fill-opacity="0.4" />
  <circle cx="223" cy="297" r="2" fill="#E57373" fill-opacity="0.4" />
  <circle cx="217" cy="303" r="2" fill="#E57373" fill-opacity="0.4" />
  <circle cx="223" cy="303" r="2" fill="#E57373" fill-opacity="0.4" />
  
  <circle cx="230" cy="310" r="3" fill="#F3C98B" fill-opacity="0.5" />
  <circle cx="227" cy="307" r="2" fill="#F3C98B" fill-opacity="0.4" />
  <circle cx="233" cy="307" r="2" fill="#F3C98B" fill-opacity="0.4" />
  <circle cx="227" cy="313" r="2" fill="#F3C98B" fill-opacity="0.4" />
  <circle cx="233" cy="313" r="2" fill="#F3C98B" fill-opacity="0.4" />
  
  <!-- Flowers group 2 -->
  <circle cx="380" cy="300" r="3" fill="#A7C7E7" fill-opacity="0.5" />
  <circle cx="377" cy="297" r="2" fill="#A7C7E7" fill-opacity="0.4" />
  <circle cx="383" cy="297" r="2" fill="#A7C7E7" fill-opacity="0.4" />
  <circle cx="377" cy="303" r="2" fill="#A7C7E7" fill-opacity="0.4" />
  <circle cx="383" cy="303" r="2" fill="#A7C7E7" fill-opacity="0.4" />
  
  <circle cx="370" cy="310" r="3" fill="#E57373" fill-opacity="0.5" />
  <circle cx="367" cy="307" r="2" fill="#E57373" fill-opacity="0.4" />
  <circle cx="373" cy="307" r="2" fill="#E57373" fill-opacity="0.4" />
  <circle cx="367" cy="313" r="2" fill="#E57373" fill-opacity="0.4" />
  <circle cx="373" cy="313" r="2" fill="#E57373" fill-opacity="0.4" />
  
  <!-- Small bushes and plants -->
  <!-- Left side -->
  <path d="M210 320C210 320 200 300 210 290C220 280 230 290 225 300C220 310 215 310 210 320Z" fill="#8ED1BD" fill-opacity="0.5" />
  <path d="M190 340C190 340 180 320 190 310C200 300 210 310 205 320C200 330 195 330 190 340Z" fill="#6BAC9A" fill-opacity="0.4" />
  
  <!-- Right side -->
  <path d="M390 320C390 320 400 300 390 290C380 280 370 290 375 300C380 310 385 310 390 320Z" fill="#8ED1BD" fill-opacity="0.5" />
  <path d="M410 340C410 340 420 320 410 310C400 300 390 310 395 320C400 330 405 330 410 340Z" fill="#6BAC9A" fill-opacity="0.4" />
  
  <!-- Butterflies - simple, abstract shapes -->
  <path d="M250 230C253 227 256 227 259 230C256 227 253 224 250 221C247 224 244 227 241 230C244 227 247 227 250 230Z" fill="#E57373" fill-opacity="0.3" />
  <path d="M350 240C353 237 356 237 359 240C356 237 353 234 350 231C347 234 344 237 341 240C344 237 347 237 350 240Z" fill="#A7C7E7" fill-opacity="0.4" />
  <path d="M300 200C302 198 304 198 306 200C304 198 302 196 300 194C298 196 296 198 294 200C296 198 298 198 300 200Z" fill="#F3C98B" fill-opacity="0.4" />
  
  <!-- Small delicate leaves -->
  <path d="M240 260C245 255 250 257 255 255C250 257 245 260 240 260Z" fill="#8ED1BD" fill-opacity="0.6" />
  <path d="M360 260C355 255 350 257 345 255C350 257 355 260 360 260Z" fill="#8ED1BD" fill-opacity="0.6" />
  <path d="M260 280C265 275 270 277 275 275C270 277 265 280 260 280Z" fill="#6BAC9A" fill-opacity="0.5" />
  <path d="M340 280C335 275 330 277 325 275C330 277 335 280 340 280Z" fill="#6BAC9A" fill-opacity="0.5" />
  
  <!-- Morning dew/water elements -->
  <circle cx="230" cy="270" r="1" fill="#A7C7E7" fill-opacity="0.7" />
  <circle cx="240" cy="290" r="1" fill="#A7C7E7" fill-opacity="0.7" />
  <circle cx="235" cy="320" r="1" fill="#A7C7E7" fill-opacity="0.7" />
  <circle cx="370" cy="270" r="1" fill="#A7C7E7" fill-opacity="0.7" />
  <circle cx="360" cy="290" r="1" fill="#A7C7E7" fill-opacity="0.7" />
  <circle cx="365" cy="320" r="1" fill="#A7C7E7" fill-opacity="0.7" />
  
  <!-- Small ornamental garden pond/pool -->
  <ellipse cx="300" cy="340" rx="25" ry="15" fill="#A7C7E7" fill-opacity="0.3" />
  <ellipse cx="300" cy="340" rx="20" ry="12" fill="#A7C7E7" fill-opacity="0.4" />
  <ellipse cx="300" cy="340" rx="15" ry="9" fill="#A7C7E7" fill-opacity="0.5" />
  
  <!-- Small ripples in pond -->
  <ellipse cx="295" cy="335" rx="5" ry="3" stroke="#A7C7E7" stroke-opacity="0.6" stroke-width="0.5" />
  <ellipse cx="305" cy="345" rx="3" ry="2" stroke="#A7C7E7" stroke-opacity="0.6" stroke-width="0.5" />
</svg>