<?xml version="1.0" encoding="UTF-8" standalone="no"?>
<svg width="600" height="400" viewBox="0 0 600 400" fill="none" xmlns="http://www.w3.org/2000/svg">
  <!-- Background gradient -->
  <rect width="600" height="400" rx="20" fill="url(#paint0_linear)" />
  
  <!-- Very simplified left hand silhouette -->
  <path d="M200 200 L240 180 L260 200 L240 220 L220 230 L190 225 L180 210 Z" fill="#7BBEAD" stroke="#5B9D8A" stroke-width="2" />
  
  <!-- Very simplified right hand silhouette -->
  <path d="M400 200 L360 180 L340 200 L360 220 L380 230 L410 225 L420 210 Z" fill="#7BBEAD" stroke="#5B9D8A" stroke-width="2" />
  
  <!-- Plant element in the center -->
  <path d="M300 300 L300 220" stroke="#5B9D8A" stroke-width="3" stroke-linecap="round" />
  <path d="M300 220 C280 210 270 190 290 180 C310 170 330 190 300 220 Z" fill="#8ED1BD" fill-opacity="0.7" stroke="#5B9D8A" stroke-width="1" />
  <path d="M300 220 C320 210 330 190 310 180 C290 170 270 190 300 220 Z" fill="#8ED1BD" fill-opacity="0.7" stroke="#5B9D8A" stroke-width="1" />
  
  <!-- Small leaf near top of plant -->
  <path d="M300 180 C310 170 320 175 315 185 C310 195 300 190 300 180 Z" fill="#8ED1BD" fill-opacity="0.9" stroke="#5B9D8A" stroke-width="1" />
  
  <!-- Warm glow between hands -->
  <circle cx="300" cy="200" r="40" fill="#F3C98B" fill-opacity="0.2" />
  <circle cx="300" cy="200" r="30" fill="#F3C98B" fill-opacity="0.1" />
  
  <!-- Water-like flow lines below -->
  <path d="M240 260 C270 250 330 250 360 260" stroke="#7BBEAD" stroke-opacity="0.5" stroke-width="1" />
  <path d="M250 270 C280 260 320 260 350 270" stroke="#7BBEAD" stroke-opacity="0.4" stroke-width="1" />
  <path d="M260 280 C290 270 310 270 340 280" stroke="#7BBEAD" stroke-opacity="0.3" stroke-width="1" />
  
  <!-- Small nature elements in background -->
  <path d="M100 100 C130 80 160 90 180 70" stroke="#5B9D8A" stroke-opacity="0.1" stroke-width="2" />
  <path d="M500 100 C470 80 440 90 420 70" stroke="#5B9D8A" stroke-opacity="0.1" stroke-width="2" />
  <path d="M100 300 C130 320 160 310 180 330" stroke="#5B9D8A" stroke-opacity="0.1" stroke-width="2" />
  <path d="M500 300 C470 320 440 310 420 330" stroke="#5B9D8A" stroke-opacity="0.1" stroke-width="2" />
  
  <!-- Finger details for left hand -->
  <path d="M240 180 L245 160" stroke="#5B9D8A" stroke-width="1" />
  <path d="M250 185 L260 165" stroke="#5B9D8A" stroke-width="1" />
  <path d="M260 200 L275 185" stroke="#5B9D8A" stroke-width="1" />
  
  <!-- Finger details for right hand -->
  <path d="M360 180 L355 160" stroke="#5B9D8A" stroke-width="1" />
  <path d="M350 185 L340 165" stroke="#5B9D8A" stroke-width="1" />
  <path d="M340 200 L325 185" stroke="#5B9D8A" stroke-width="1" />
  
  <!-- Energy particles around plant -->
  <circle cx="290" cy="190" r="2" fill="#F3C98B" fill-opacity="0.6" />
  <circle cx="310" cy="190" r="2" fill="#F3C98B" fill-opacity="0.6" />
  <circle cx="295" cy="170" r="1.5" fill="#F3C98B" fill-opacity="0.6" />
  <circle cx="305" cy="170" r="1.5" fill="#F3C98B" fill-opacity="0.6" />
  <circle cx="300" cy="160" r="1" fill="#F3C98B" fill-opacity="0.6" />
  
  <!-- Gradients definitions -->
  <defs>
    <linearGradient id="paint0_linear" x1="300" y1="0" x2="300" y2="400" gradientUnits="userSpaceOnUse">
      <stop stop-color="#E6F7F4" />
      <stop offset="1" stop-color="#FFFFFF" />
    </linearGradient>
  </defs>
</svg>